 <!DOCTYPE svg PUBLIC "-//W3C//DTD SVG 1.1//EN" "http://www.w3.org/Graphics/SVG/1.1/DTD/svg11.dtd">
<svg xmlns="http://www.w3.org/2000/svg" width="865.76" height="682.89" viewBox="0 0 865.76 682.89">
<defs>
<style xmlns="http://www.w3.org/1999/xhtml">*, ::after, ::before { box-sizing: border-box; }
img, svg { vertical-align: middle; }
</style>
<style xmlns="http://www.w3.org/1999/xhtml">*, body, html { }
img, svg { max-width: 100%; }
</style>
</defs>
<path d="M793.24,347.17A261.63,261.63,0,0,1,670.42,569.34q-2.4,1.5-4.83,2.94A258,258,0,0,1,462,598.05C354,566.53,275.11,466.14,275.11,347.17,275.11,202.94,391.09,86,534.17,86S793.24,202.94,793.24,347.17Z" fill="#f2c200" data-primary="true"/>
<path d="M793.24,347.17A261.63,261.63,0,0,1,670.42,569.34q-2.4,1.5-4.83,2.94A258,258,0,0,1,462,598.05C354,566.53,275.11,466.14,275.11,347.17,275.11,202.94,391.09,86,534.17,86S793.24,202.94,793.24,347.17Z" fill="#fff" opacity="0.7"/>
<path d="M277.55,185.81c-34.73,0-48.81-21.34-53.45-31.18a61.13,61.13,0,0,1-2.07-47.1,52.72,52.72,0,0,1,35.78-33l.19,1a51.74,51.74,0,0,0-35,32.36,60.15,60.15,0,0,0,2,46.33c4.56,9.65,18.4,30.59,52.57,30.6a94.8,94.8,0,0,0,10.09-.57l.11,1A94.8,94.8,0,0,1,277.55,185.81Z" fill="#f2c200" data-primary="true"/>
<path d="M342.68,128.37A56.72,56.72,0,1,1,253,82.23h0a55.23,55.23,0,0,1,6.54-4h0a56.72,56.72,0,0,1,83.14,50.19Z" fill="#f2c200" data-primary="true"/>
<path d="M287.36,131.87l-31.2-60.22a63.79,63.79,0,0,1,46.61-4.2Z" fill="#f2c200" data-primary="true"/>
<path d="M287.36,131.87l-31.2-60.22a63.79,63.79,0,0,1,46.61-4.2Z" fill="#fff" opacity="0.4"/>
<path d="M287.36,131.87,253,82.23h0a55.23,55.23,0,0,1,6.54-4h0Z" opacity="0.2"/>
<path d="M306.28,221.18l7.43,9.41a271,271,0,0,0,40.87-30.8l-7.19-9.58a2,2,0,0,0-2.84-.41L306.7,218A2.21,2.21,0,0,0,306.28,221.18Z" fill="#f2c200" data-primary="true"/>
<path d="M306.28,221.18l7.43,9.41a271,271,0,0,0,40.87-30.8l-7.19-9.58a2,2,0,0,0-2.84-.41L306.7,218A2.21,2.21,0,0,0,306.28,221.18Z" fill="#fff" opacity="0.3"/>
<path d="M670.42,569.34A258,258,0,0,1,462,598.05L477.81,545l18.9-15.4,123.93,3.5Z" fill="#2f2e41" data-secondary="true"/>
<path d="M694.16,194.18l-4.9,39.21c-41.31,16.81-54.61-11.9-54.61-11.9l6.3-23.1,33.61-17.51Z" fill="#f9b499"/>
<path d="M641,198.39l-4.59,16.81s15.09,1.92,28-17.25Z" fill="#f7a48b"/>
<path d="M761.38,362.23s-9.47,78.89-44.59,170.16a259.77,259.77,0,0,1-46.37,37q-2.4,1.5-4.83,2.94c-35.24,1.16-104.59-.5-161.87-25.91L505.82,400l16.8-52.51s-14.7,8.4-46.91,18.91L421.8,316l12.6-12.6,92.42-51.11s11.41-8.35,30.91-13.63c0,0,20.78-6.88,60.53-14.29q7.71-1.44,16.39-2.89s13.3,28.71,54.61,11.9l9.8,10.51s37.81,26.6,53.92,49C753,292.91,769.08,317.41,761.38,362.23Z" fill="#f2c200" data-primary="true"/>
<line x1="522.62" y1="347.52" x2="533.82" y2="314.61" fill="none" stroke="#000" stroke-miterlimit="10" opacity="0.2"/>
<path d="M699.06,243.9c-15.4,14-48.68,7.32-48.68,7.32-23.47-2.49-32.12-26.84-32.12-26.84q7.71-1.44,16.39-2.89s13.3,28.71,54.61,11.9Z" fill="#f2c200" data-primary="true"/>
<path d="M699.06,243.9c-15.4,14-48.68,7.32-48.68,7.32-23.47-2.49-32.12-26.84-32.12-26.84q7.71-1.44,16.39-2.89s13.3,28.71,54.61,11.9Z" fill="#fff" opacity="0.3"/>
<path d="M663.36,262.43A59.73,59.73,0,0,1,643,259c-24.73-8.89-35-32.27-35.11-32.51a.5.5,0,0,1,.92-.39c.1.23,10.22,23.23,34.54,32,18.2,6.53,39.54,3.6,63.43-8.72a.5.5,0,0,1,.46.89C691.5,258.36,676.8,262.43,663.36,262.43Z" fill="#2f2e41" data-secondary="true"/>
<path d="M665.65,253.55c-5,0-8.59-.36-9-.4-31.48-2.8-38.81-28.38-38.88-28.64a.5.5,0,0,1,.36-.61.5.5,0,0,1,.61.35c.07.25,7.23,25.16,38,27.9.3,0,29.68,3,42-8.62a.51.51,0,0,1,.71,0,.5.5,0,0,1,0,.71C691,252.16,675.53,253.55,665.65,253.55Z" fill="#2f2e41" data-secondary="true"/>
<polygon points="332.17 406.34 564.63 627.59 654.95 537.27 421.8 316.01 473.61 261.92 244.65 230.59 278.66 461.53 332.17 406.34" fill="#f2c200" data-primary="true"/>
<polygon points="332.17 406.34 564.63 627.59 654.95 537.27 421.8 316.01 473.61 261.92 244.65 230.59 278.66 461.53 332.17 406.34" fill="#fff" opacity="0.4"/>
<polygon points="332.17 406.34 349.77 423.08 421.8 316.01 332.17 406.34" fill="#fff" opacity="0.4"/>
<polygon points="86.78 266.95 155.24 332.12 181.85 305.51 113.17 240.35 128.44 224.42 61 215.19 71.02 283.21 86.78 266.95" fill="#f2c200" data-primary="true"/>
<polygon points="86.78 266.95 91.96 271.88 113.17 240.35 86.78 266.95" opacity="0.2"/>
<polygon points="152.67 519.82 248.66 611.19 285.96 573.89 189.68 482.52 211.07 460.18 116.52 447.24 130.57 542.61 152.67 519.82" fill="#2f2e41" data-secondary="true"/>
<polygon points="152.67 519.82 159.93 526.73 189.68 482.52 152.67 519.82" opacity="0.2"/>
<path d="M307,233.39l5.16,6.44,83.73,11.45-41.28-51.49S323.77,227.09,307,233.39Z" fill="#f2c200" data-primary="true"/>
<path d="M286,185.08s5.65,16.64,24.18,30.38l34-25.37s-8.47-16.91-5.67-33c0,0,3.35-21.26-2.43-25.27a3.13,3.13,0,0,0-4,.43c-1.88,1.85-4.86,6.69-5,18.87,0,3.56-1.36,7-2.6,10.33-2.11,5.69-5.78,13.51-10.69,16.36a6.22,6.22,0,0,1-.84.53A79.53,79.53,0,0,1,286,185.08Z" fill="#f9b499"/>
<path d="M364.14,211.71s-26.36,22.38-39,27.29" fill="none" stroke="#000" stroke-miterlimit="10" opacity="0.2"/>
<ellipse cx="663.58" cy="155.76" rx="54.45" ry="34.83" transform="translate(106.31 548.26) rotate(-48.37)" fill="#f9b499"/>
<path d="M684.36,139.57s-55.63-31.5-5.58-59.09a4.65,4.65,0,0,1,5.87,1.16l42.42,53s3.5-2.8,4.2-11.2c0,0,4.9,9.8-1.4,17.5,0,0,7.7,5.6,6.3,9.8h-7s-11.23,28.71-35,43.41c0,0-28-6.3-21-22.4C673.16,171.78,666.16,157.08,684.36,139.57Z" fill="#2f2e41" data-secondary="true"/>
<ellipse cx="676.55" cy="167.96" rx="12.99" ry="11.2" transform="translate(335.57 775.95) rotate(-74.66)" fill="#f9b499"/>
<path d="M753,369.93c-37.11,86.82-61.93,107.12-61.93,107.12-40.93,33.61-154.43,61.62-154.43,61.62-1.4-19.61-17.5-59.52-17.5-59.52l92.42-39.91s20.06.08,52-56.32l39-66.21" fill="#f2c200" data-primary="true"/>
<path d="M536.62,539a.37.37,0,0,1-.2-.07.34.34,0,0,1-.15-.26c-1.38-19.32-17.31-59-17.48-59.41a.36.36,0,0,1,.19-.45l92.42-39.91a.35.35,0,0,1,.14,0c.2,0,20.29-.68,51.74-56.14l39-66.21a.35.35,0,0,1,.61.35l-39,66.21c-31,54.76-50.68,56.45-52.26,56.49l-92,39.75c1.51,3.79,15.87,40.25,17.37,58.89,7.47-1.88,114.7-29.27,153.88-61.45.25-.2,25.21-21.29,61.83-107a.35.35,0,0,1,.65.27c-36.72,85.91-61.78,107.06-62,107.26C650.75,510.6,537.84,538.73,536.71,539Z" fill="#f2c200" data-primary="true"/>
<path d="M536.62,539a.37.37,0,0,1-.2-.07.34.34,0,0,1-.15-.26c-1.38-19.32-17.31-59-17.48-59.41a.36.36,0,0,1,.19-.45l92.42-39.91a.35.35,0,0,1,.14,0c.2,0,20.29-.68,51.74-56.14l39-66.21a.35.35,0,0,1,.61.35l-39,66.21c-31,54.76-50.68,56.45-52.26,56.49l-92,39.75c1.51,3.79,15.87,40.25,17.37,58.89,7.47-1.88,114.7-29.27,153.88-61.45.25-.2,25.21-21.29,61.83-107a.35.35,0,0,1,.65.27c-36.72,85.91-61.78,107.06-62,107.26C650.75,510.6,537.84,538.73,536.71,539Z" opacity="0.2"/>
<path d="M535.29,472.17s12.54,30.09,16,48.29" fill="none" stroke="#000" stroke-miterlimit="10" opacity="0.2"/>
<path d="M672.45,489.47S663.34,443,709.21,454.4" fill="none" stroke="#000" stroke-miterlimit="10" opacity="0.2"/>
<path d="M519.12,479.15l-11.9,4.2,16.51,55.32,12.55-3.31S529.62,503,519.12,479.15Z" fill="#f2c200" data-primary="true"/>
<path d="M519.12,479.15l-11.9,4.2,16.51,55.32,12.55-3.31S529.62,503,519.12,479.15Z" fill="#fff" opacity="0.3"/>
<path d="M507.22,483.35,478.56,462a2.53,2.53,0,0,0-3.36.3c-6.66,7,10.31,25.23,10.31,25.23,4.06,4.95.86,7.88-1.93,9.33a13,13,0,0,1-4.4,1.33c-9.48,1.2-37.08,6.84-37.08,6.84-25.21,5.6-23.1,9.1-23.1,9.1-1.4,8.4,28,3.5,28,3.5C445.6,537.27,461.71,535,461.71,535c-2.1,9.6,7.7,11.4,7.7,11.4,1.4,15.4,53.21-11.4,53.21-11.4ZM457,524a4.73,4.73,0,0,1-4.87-1.67l-3.07-3.95h21.68C467,521.18,460.75,523.05,457,524Z" fill="#f9b499"/>
<line x1="461.71" y1="534.97" x2="473.61" y2="531.67" fill="none" stroke="#f7a48b" stroke-miterlimit="10"/>
<line x1="469.41" y1="546.37" x2="480.92" y2="542.44" fill="none" stroke="#f7a48b" stroke-miterlimit="10"/>
</svg>